# 3ds Max Wavefront OBJ Exporter v0.97b - (c)2007 guruware
# File Created: 11.03.2018 18:30:38

mtllib Escalera.mtl

#
# object Box737
#

v  -584.6908 -114.8705 202.7644
v  -584.6908 -80.8897 202.7644
v  -584.6908 -80.8897 246.8057
v  -584.6908 -114.8705 246.8057
v  -711.9078 -114.8705 202.7644
v  -711.9078 -114.8705 246.8057
v  -711.9078 -80.8897 246.8057
v  -711.9078 -80.8897 202.7644
v  -584.6908 -114.8705 356.2849
v  -584.6908 -80.8897 356.2849
v  -711.9078 -80.8897 356.2849
v  -711.9078 -114.8705 356.2849
v  -711.9078 -114.8705 320.8466
v  -712.0846 -80.8897 320.8466
v  -584.6908 -114.8705 320.8467
v  -711.9078 -114.8705 284.6285
v  -711.9078 -80.8897 284.6285
v  -584.6908 -114.8705 284.6285
v  -584.6908 -47.2426 202.7644
v  -584.6908 -47.2426 246.8057
v  -711.9078 -47.2426 246.8057
v  -711.9078 -47.2426 202.7644
v  -584.8676 -80.8897 320.8467
v  -584.6908 -80.8897 284.6285
v  -712.0847 -47.2426 320.8466
v  -711.9078 -47.2426 284.6285
v  -584.8676 -47.2426 320.8467
v  -584.8676 -47.2426 284.6285
v  -584.6908 -14.8773 202.7644
v  -584.6908 -14.8773 246.8057
v  -711.9078 -14.8773 246.8057
v  -711.9078 -14.8773 202.7644
v  -711.9078 -14.8773 284.6285
v  -584.6908 -14.8773 284.6285
v  -584.6908 12.6812 202.7644
v  -584.6908 12.6812 246.8057
v  -711.9078 12.6812 246.8057
v  -711.9078 12.6812 202.7644
# 38 vertices

vn 0.5774 -0.5774 -0.5774
vn 0.7071 0.0000 -0.7071
vn 1.0000 0.0000 0.0000
vn 0.7071 -0.7071 0.0000
vn -0.5774 -0.5774 -0.5774
vn -0.7071 -0.7071 -0.0000
vn -1.0000 -0.0000 -0.0000
vn -0.7071 -0.0000 -0.7071
vn 0.5774 -0.5774 0.5774
vn 0.5775 0.5773 0.5772
vn -0.5772 0.5774 0.5775
vn -0.5774 -0.5774 0.5774
vn -0.7068 -0.7074 -0.0000
vn -0.9048 0.3009 0.3014
vn 0.7074 -0.7068 0.0000
vn -1.0000 -0.0000 -0.0003
vn 0.7071 -0.0000 -0.7071
vn 1.0000 0.0000 0.0003
vn 0.9043 0.3021 0.3016
vn 1.0000 0.0005 0.0003
vn -0.5775 0.5773 0.5772
vn -0.9046 0.3016 0.3013
vn 0.5774 0.5774 0.5774
vn 0.9043 0.3017 0.3020
vn 0.9045 0.3015 0.3015
vn -0.9045 0.3015 0.3015
vn -0.5774 0.5774 0.5774
vn 0.5777 0.5771 0.5773
vn 0.5774 0.5774 -0.5774
vn -0.5774 0.5774 -0.5774
# 30 vertex normals

vt 0.3617 0.6942 0.0000
vt 0.3617 0.7482 0.0000
vt 0.2638 0.7482 0.0000
vt 0.2638 0.6942 0.0000
vt 0.4529 0.4709 0.0000
vt 0.5858 0.4709 0.0000
vt 0.5858 0.5442 0.0000
vt 0.4529 0.5442 0.0000
vt 0.4258 0.1294 0.0000
vt 0.4273 0.2690 0.0000
vt 0.3759 0.2695 0.0000
vt 0.3745 0.1299 0.0000
vt 0.4309 0.6160 0.0000
vt 0.4317 0.6931 0.0000
vt 0.3803 0.6936 0.0000
vt 0.3795 0.6165 0.0000
vt 0.8093 0.4709 0.0000
vt 0.9162 0.4709 0.0000
vt 0.9162 0.5442 0.0000
vt 0.8093 0.5442 0.0000
vt 0.4297 0.5037 0.0000
vt 0.3783 0.5042 0.0000
vt 0.7000 0.4709 0.0000
vt 0.7000 0.5442 0.0000
vt 0.4285 0.3889 0.0000
vt 0.3772 0.3894 0.0000
vt 0.3617 0.8017 0.0000
vt 0.2638 0.8017 0.0000
vt 0.5858 0.6169 0.0000
vt 0.4529 0.6169 0.0000
vt 0.1395 0.3193 0.0000
vt 0.1477 0.2024 0.0000
vt 0.2257 0.2079 0.0000
vt 0.2175 0.3248 0.0000
vt 0.0205 0.7482 0.0000
vt 0.0205 0.6942 0.0000
vt 0.0992 0.6942 0.0000
vt 0.0992 0.7482 0.0000
vt 0.1797 0.6942 0.0000
vt 0.1797 0.7482 0.0000
vt 0.8093 0.6169 0.0000
vt 0.7000 0.6169 0.0000
vt 0.1314 0.4351 0.0000
vt 0.2094 0.4406 0.0000
vt 0.0992 0.8017 0.0000
vt 0.1797 0.8017 0.0000
vt 0.3617 0.8532 0.0000
vt 0.2638 0.8532 0.0000
vt 0.5858 0.6868 0.0000
vt 0.4529 0.6868 0.0000
vt 0.7000 0.6868 0.0000
vt 0.1236 0.5465 0.0000
vt 0.2015 0.5520 0.0000
vt 0.1797 0.8531 0.0000
vt 0.3617 0.8970 0.0000
vt 0.2638 0.8970 0.0000
vt 0.5858 0.7462 0.0000
vt 0.4529 0.7462 0.0000
vt 0.1169 0.6413 0.0000
vt 0.1949 0.6468 0.0000
vt 0.3813 0.8059 0.0000
vt 0.4327 0.8054 0.0000
vt 0.7907 0.1666 0.0000
vt 0.8077 0.4286 0.0000
vt 0.7113 0.4348 0.0000
vt 0.6943 0.1729 0.0000
vt 0.7832 0.0494 0.0000
vt 0.6867 0.0556 0.0000
vt 0.1797 0.9372 0.0000
vt 0.1437 0.9372 0.0000
vt 0.1437 0.8531 0.0000
vt 0.1437 0.8017 0.0000
vt 0.0992 0.8822 0.0000
vt 0.0632 0.8822 0.0000
vt 0.0632 0.8017 0.0000
vt 0.0632 0.7482 0.0000
# 76 texture coords

o Box737
g Box737
usemtl wire_145028177
s 2
f 1/1/1 2/2/2 3/3/3 4/4/4 
s 4
f 5/5/5 6/6/6 7/7/7 8/8/8 
s 8
f 1/9/1 4/10/4 6/11/6 5/12/5 
s 16
f 9/13/9 10/14/10 11/15/11 12/16/12 
s 4
f 13/17/13 12/18/12 11/19/11 14/20/14 
s 8
f 15/21/15 9/13/9 12/16/12 13/22/13 
s 4
f 16/23/6 13/17/13 14/20/14 17/24/16 
s 8
f 18/25/4 15/21/15 13/22/13 16/26/6 
s 4
f 6/6/6 16/23/6 17/24/16 7/7/7 
s 8
f 4/10/4 18/25/4 16/26/6 6/11/6 
s 2
f 2/2/2 19/27/17 20/28/18 3/3/3 
s 4
f 7/7/7 21/29/7 22/30/8 8/8/8 
s 64
f 2/31/2 1/32/1 5/33/5 8/34/8 
s 2
f 10/35/10 9/36/9 15/37/15 23/38/19 
f 23/38/19 15/37/15 18/39/4 24/40/20 
s 4
f 14/20/14 25/41/21 26/42/22 17/24/16 
s 2
f 24/40/20 18/39/4 4/4/4 3/3/3 
s 4
f 17/24/16 26/42/22 21/29/7 7/7/7 
s 64
f 19/43/17 2/31/2 8/34/8 22/44/8 
s 2
f 27/45/23 23/38/19 24/40/20 28/46/24 
f 28/46/24 24/40/20 3/3/3 20/28/18 
f 19/27/17 29/47/2 30/48/25 20/28/18 
s 4
f 21/29/7 31/49/26 32/50/8 22/30/8 
f 26/42/22 33/51/27 31/49/26 21/29/7 
s 64
f 29/52/2 19/43/17 22/44/8 32/53/8 
s 2
f 34/54/28 28/46/24 20/28/18 30/48/25 
f 29/47/2 35/55/29 36/56/23 30/48/25 
s 4
f 31/49/26 37/57/27 38/58/30 32/50/8 
s 64
f 35/59/29 29/52/2 32/53/8 38/60/30 
s 1
f 14/61/14 11/15/11 10/14/10 23/62/19 
s 8
f 36/63/23 35/64/29 38/65/30 37/66/27 
s 16
f 30/67/25 36/63/23 37/66/27 31/68/26 
s 8
f 34/54/28 30/69/25 31/70/26 33/71/27 
s 16
f 28/46/24 34/54/28 33/71/27 26/72/22 
s 8
f 27/45/23 28/73/24 26/74/22 25/75/21 
s 16
f 23/38/19 27/45/23 25/75/21 14/76/14 
# 36 polygons

