# 3ds Max Wavefront OBJ Exporter v0.97b - (c)2007 guruware
# File Created: 11.03.2018 20:15:14

mtllib LLave.mtl

#
# object Box761
#

v  -1293.2285 11.4134 51.4434
v  -1293.2285 16.5059 51.4434
v  -1293.8380 16.5059 49.5313
v  -1293.8380 11.4134 49.5313
v  -1289.7260 11.4134 51.4434
v  -1289.3411 11.4134 49.5313
v  -1289.3411 16.5059 49.5313
v  -1289.7260 16.5059 51.4434
v  -1293.2285 11.4134 48.3927
v  -1293.2285 16.5059 48.3927
v  -1291.7859 16.5059 47.8018
v  -1291.7859 11.4134 47.8018
v  -1293.2285 42.2739 54.4726
v  -1293.2285 41.4322 52.9608
v  -1291.7859 41.4322 52.9608
v  -1291.7859 42.2739 54.4726
v  -1293.2285 39.4092 51.5441
v  -1293.8380 43.5422 52.0621
v  -1293.8380 40.9058 49.9152
v  -1289.7260 41.7969 48.9452
v  -1289.7260 44.7986 51.5270
v  -1289.3411 43.5422 52.0621
v  -1289.3411 40.9058 49.9152
v  -1293.2285 41.7969 48.9452
v  -1293.2285 44.7987 51.5270
v  -1291.7859 45.5491 51.7785
v  -1291.7859 42.1341 48.4322
v  -1293.2285 36.6360 51.4434
v  -1291.7859 36.6360 51.4434
v  -1291.7859 39.4092 51.5441
v  -1293.8380 36.6360 49.5999
v  -1289.7260 36.6360 48.5021
v  -1289.3411 36.6360 49.5999
v  -1293.2285 36.6360 48.5021
v  -1291.7859 36.6360 47.9113
v  -1293.2285 30.8845 51.4434
v  -1291.7859 30.8845 51.4434
v  -1293.8380 30.8845 49.7028
v  -1289.7260 30.8845 48.6663
v  -1289.3411 30.8845 49.7028
v  -1293.2285 30.8845 48.6663
v  -1291.7859 30.8845 48.0754
v  -1293.2285 24.1745 51.4434
v  -1291.7859 24.1745 51.4434
v  -1293.8380 24.1745 49.5999
v  -1289.7260 24.1745 48.5021
v  -1289.3411 24.1745 49.5999
v  -1293.2285 24.1745 48.5021
v  -1291.7859 24.1745 47.9113
v  -1291.7859 16.5059 51.4434
v  -1289.7260 16.5059 48.3927
v  -1291.7859 11.4134 51.4434
v  -1293.8380 44.5667 54.1033
v  -1289.7260 45.9319 53.8834
v  -1289.3411 44.5667 54.1033
v  -1293.2285 45.9319 53.8834
v  -1291.7859 46.3451 54.0570
v  -1293.8380 44.5667 57.2385
v  -1293.2285 45.9319 57.4584
v  -1289.7260 42.2739 54.4726
v  -1289.3411 44.5667 57.2385
v  -1289.7260 42.2738 56.8693
v  -1291.7859 46.3451 57.6320
v  -1289.7260 45.9319 57.4584
v  -1291.7859 42.2739 56.8693
v  -1293.2285 42.2739 56.8693
v  -1293.8380 43.6485 59.4939
v  -1293.2286 44.6288 60.3893
v  -1289.3411 43.6485 59.4939
v  -1289.7260 42.0023 57.9903
v  -1291.7859 45.0420 60.5629
v  -1289.7260 44.6288 60.3892
v  -1291.7859 42.0023 57.9903
v  -1293.2285 42.0023 57.9903
v  -1293.8380 41.7525 60.7705
v  -1293.2286 42.1113 61.9211
v  -1289.3411 41.7525 60.7705
v  -1289.7260 41.1499 58.8382
v  -1291.7859 42.5245 62.0947
v  -1289.7260 42.1113 61.9210
v  -1291.7859 41.1499 58.8382
v  -1293.2286 41.1499 58.8382
v  -1293.8380 39.6321 61.0821
v  -1293.2286 39.7529 62.2414
v  -1289.3411 39.6321 61.0821
v  -1289.7260 39.4292 59.1352
v  -1291.7859 40.1661 62.4150
v  -1289.7260 39.7529 62.2414
v  -1291.7859 39.4292 59.1352
v  -1293.2286 39.4292 59.1352
v  -1289.7260 11.4134 48.3927
v  -1289.7260 41.4322 52.9608
v  -1289.7260 39.4092 51.5441
v  -1289.7260 36.6360 51.4434
v  -1289.7260 30.8845 51.4434
v  -1289.7260 24.1745 51.4434
v  -1295.8479 11.4134 46.2368
v  -1297.4272 11.4134 49.1872
v  -1286.7717 11.4134 54.1421
v  -1285.7743 11.4134 49.1872
v  -1292.1095 11.4134 44.7058
v  -1292.1095 11.4134 54.1421
v  -1286.7717 11.4134 46.2368
v  -1295.8479 11.4134 54.1421
v  -1295.8479 5.8841 46.2368
v  -1297.4272 5.8841 49.1872
v  -1286.7717 5.8841 54.1421
v  -1285.7743 5.8841 49.1872
v  -1292.1095 5.8841 44.7058
v  -1292.1095 5.8841 54.1421
v  -1286.7717 5.8841 46.2368
v  -1295.8479 5.8841 54.1421
# 112 vertices

vn -0.2945 0.8665 0.4030
vn -0.5900 0.0000 0.8074
vn -0.9957 0.0005 -0.0925
vn -0.5893 0.8061 -0.0540
vn 0.3004 0.8804 0.3669
vn 0.6363 0.7704 -0.0406
vn 0.9979 0.0003 -0.0644
vn 0.6335 -0.0000 0.7737
vn -0.4091 0.7918 -0.4535
vn -0.6690 0.0058 -0.7432
vn -0.0546 0.0078 -0.9985
vn -0.0336 0.7889 -0.6137
vn -0.6485 -0.7398 0.1794
vn -0.6408 -0.5850 0.4971
vn -0.0000 -0.7690 0.6393
vn -0.0000 -0.9725 0.2330
vn -0.6522 -0.2405 0.7189
vn -0.9909 0.1020 -0.0882
vn -0.9854 0.0415 -0.1651
vn 0.6534 0.3135 -0.6891
vn 0.6361 0.6190 -0.4607
vn 0.9958 0.0695 -0.0601
vn 0.9932 0.0282 -0.1133
vn -0.6477 0.3162 -0.6932
vn -0.6107 0.6322 -0.4768
vn -0.0467 0.8818 -0.4692
vn -0.0514 0.4498 -0.8917
vn -0.5892 -0.0161 0.8078
vn -0.0000 -0.0199 0.9998
vn -0.0000 -0.3400 0.9404
vn -0.9943 0.0036 -0.1063
vn 0.6773 0.0230 -0.7354
vn 0.9972 0.0025 -0.0742
vn -0.6575 0.0235 -0.7531
vn -0.0539 0.0355 -0.9979
vn -0.5786 0.0000 0.8156
vn -0.0000 0.0000 1.0000
vn -0.9957 -0.0001 -0.0924
vn 0.6838 -0.0016 -0.7296
vn 0.9978 -0.0001 -0.0657
vn -0.6578 -0.0017 -0.7532
vn -0.0550 -0.0022 -0.9985
vn -0.5857 0.0000 0.8105
vn -0.9955 0.0013 -0.0945
vn 0.6855 0.0154 -0.7279
vn 0.9978 0.0009 -0.0663
vn -0.6635 0.0159 -0.7480
vn -0.0546 0.0211 -0.9983
vn -0.0000 -0.0000 1.0000
vn 0.6893 0.0057 -0.7245
vn -0.0000 0.7071 0.7071
vn -0.9912 0.1291 -0.0304
vn 0.6247 0.7622 -0.1696
vn 0.9959 0.0876 -0.0206
vn -0.5968 0.7826 -0.1769
vn -0.0343 0.9894 -0.1414
vn -0.9922 0.1224 0.0222
vn -0.6183 0.7723 0.1456
vn 0.6918 -0.7019 0.1697
vn 0.9964 0.0831 0.0150
vn 0.6636 -0.7438 -0.0807
vn -0.0387 0.9794 0.1979
vn 0.6404 0.7546 0.1434
vn -0.0000 -0.9941 -0.1087
vn -0.6224 -0.7781 -0.0842
vn -0.9884 0.1272 0.0825
vn -0.6052 0.6097 0.5118
vn 0.9947 0.0865 0.0560
vn 0.6931 -0.6433 -0.3253
vn -0.0381 0.7808 0.6237
vn 0.6248 0.5996 0.5001
vn -0.0000 -0.8869 -0.4620
vn -0.6463 -0.6824 -0.3414
vn -0.9894 0.0631 0.1309
vn -0.5761 0.2764 0.7692
vn 0.9950 0.0432 0.0896
vn 0.7043 -0.3528 -0.6160
vn -0.0304 0.3799 0.9245
vn 0.6098 0.2717 0.7446
vn -0.0000 -0.4859 -0.8740
vn -0.6549 -0.3783 -0.6542
vn -0.9944 0.0168 0.1043
vn -0.6092 0.1167 0.7844
vn 0.9973 0.0116 0.0720
vn 0.6523 -0.1407 -0.7448
vn -0.0257 0.1471 0.9888
vn 0.6488 0.1119 0.7527
vn -0.0000 -0.1856 -0.9826
vn -0.6081 -0.1474 -0.7800
vn 0.3873 0.8279 -0.4058
vn 0.6858 -0.5559 0.4697
vn 0.7011 -0.2303 0.6748
vn 0.6346 -0.0154 0.7727
vn 0.6261 -0.0000 0.7797
vn 0.6307 -0.0000 0.7760
vn -0.5157 0.6383 -0.5716
vn -0.7741 0.6291 -0.0710
vn 0.5122 0.5885 0.6256
vn 0.7557 0.6531 -0.0482
vn -0.0420 0.6402 -0.7670
vn 0.5439 0.6160 -0.5698
vn -0.4741 0.5953 0.6487
vn -0.6699 0.0000 -0.7425
vn -0.9958 0.0000 -0.0913
vn 0.9980 0.0000 -0.0636
vn -0.0547 0.0000 -0.9985
vn 0.6904 -0.0000 -0.7234
# 107 vertex normals

vt 0.3009 0.7426 0.0000
vt 0.3667 0.6899 0.0000
vt 0.3872 0.7154 0.0000
vt 0.3356 0.7765 0.0000
vt 0.2564 0.6661 0.0000
vt 0.2466 0.6185 0.0000
vt 0.3253 0.6076 0.0000
vt 0.3365 0.6375 0.0000
vt 0.3608 0.7944 0.0000
vt 0.4013 0.7286 0.0000
vt 0.4187 0.7453 0.0000
vt 0.3875 0.8032 0.0000
vt 0.7041 0.2740 0.0000
vt 0.6672 0.2835 0.0000
vt 0.6634 0.2595 0.0000
vt 0.6978 0.2506 0.0000
vt 0.6202 0.2924 0.0000
vt 0.6792 0.3171 0.0000
vt 0.6267 0.3293 0.0000
vt 0.6476 0.4051 0.0000
vt 0.7014 0.3899 0.0000
vt 0.7044 0.4098 0.0000
vt 0.6534 0.4251 0.0000
vt 0.6307 0.3510 0.0000
vt 0.6865 0.3370 0.0000
vt 0.7018 0.3559 0.0000
vt 0.6356 0.3737 0.0000
vt 0.5740 0.2887 0.0000
vt 0.5778 0.2643 0.0000
vt 0.6211 0.2671 0.0000
vt 0.5613 0.3256 0.0000
vt 0.5809 0.4359 0.0000
vt 0.5962 0.4553 0.0000
vt 0.5539 0.3587 0.0000
vt 0.5591 0.3994 0.0000
vt 0.6441 0.5351 0.0000
vt 0.5662 0.5794 0.0000
vt 0.5543 0.5588 0.0000
vt 0.6337 0.5136 0.0000
vt 0.6604 0.5629 0.0000
vt 0.5823 0.6058 0.0000
vt 0.5126 0.4866 0.0000
vt 0.5223 0.5033 0.0000
vt 0.5934 0.6228 0.0000
vt 0.6715 0.5807 0.0000
vt 0.6846 0.6035 0.0000
vt 0.6067 0.6456 0.0000
vt 0.4739 0.6309 0.0000
vt 0.4615 0.6114 0.0000
vt 0.4917 0.6573 0.0000
vt 0.4257 0.5386 0.0000
vt 0.4325 0.5553 0.0000
vt 0.5043 0.6738 0.0000
vt 0.5181 0.6960 0.0000
vt 0.3530 0.6688 0.0000
vt 0.3211 0.5901 0.0000
vt 0.2819 0.7091 0.0000
vt 0.7148 0.3079 0.0000
vt 0.7354 0.3802 0.0000
vt 0.7396 0.3991 0.0000
vt 0.7210 0.3275 0.0000
vt 0.7312 0.3476 0.0000
vt 0.7648 0.2931 0.0000
vt 0.7717 0.3127 0.0000
vt 0.7470 0.4328 0.0000
vt 0.7899 0.3848 0.0000
vt 0.7959 0.4187 0.0000
vt 0.7799 0.3335 0.0000
vt 0.7861 0.3655 0.0000
vt 0.7439 0.2377 0.0000
vt 0.7517 0.2602 0.0000
vt 0.8036 0.2820 0.0000
vt 0.8167 0.2999 0.0000
vt 0.8287 0.3730 0.0000
vt 0.8231 0.4097 0.0000
vt 0.8231 0.3209 0.0000
vt 0.8307 0.3522 0.0000
vt 0.7677 0.2313 0.0000
vt 0.7786 0.2535 0.0000
vt 0.8352 0.2653 0.0000
vt 0.8545 0.2829 0.0000
vt 0.8645 0.3698 0.0000
vt 0.8493 0.4054 0.0000
vt 0.8620 0.3095 0.0000
vt 0.8713 0.3460 0.0000
vt 0.7866 0.2229 0.0000
vt 0.8026 0.2432 0.0000
vt 0.8576 0.2420 0.0000
vt 0.8829 0.2636 0.0000
vt 0.8960 0.3772 0.0000
vt 0.8782 0.4106 0.0000
vt 0.8948 0.2999 0.0000
vt 0.9053 0.3471 0.0000
vt 0.8067 0.2054 0.0000
vt 0.8235 0.2228 0.0000
vt 0.2427 0.5871 0.0000
vt 0.7092 0.4443 0.0000
vt 0.6617 0.4603 0.0000
vt 0.6171 0.4827 0.0000
vt 0.5375 0.5290 0.0000
vt 0.4457 0.5823 0.0000
vt 0.3150 0.5569 0.0000
vt 0.2525 0.5488 0.0000
vt 0.7209 0.4770 0.0000
vt 0.7566 0.4660 0.0000
vt 0.6771 0.4926 0.0000
vt 0.4926 0.4559 0.0000
vt 0.4095 0.5070 0.0000
vt 0.8031 0.4520 0.0000
vt 0.8265 0.4449 0.0000
vt 0.8467 0.4418 0.0000
vt 0.8732 0.4445 0.0000
vt 0.3498 0.8486 0.0000
vt 0.3102 0.8315 0.0000
vt 0.1919 0.6799 0.0000
vt 0.1851 0.6133 0.0000
vt 0.4115 0.8517 0.0000
vt 0.2388 0.7389 0.0000
vt 0.1853 0.5757 0.0000
vt 0.2558 0.7854 0.0000
vt 0.2275 0.5007 0.0000
vt 0.3253 0.9282 0.0000
vt 0.2666 0.9036 0.0000
vt 0.1142 0.7054 0.0000
vt 0.0985 0.6133 0.0000
vt 0.3962 0.9408 0.0000
vt 0.1602 0.7872 0.0000
vt 0.1065 0.5532 0.0000
vt 0.1954 0.8419 0.0000
vt 0.1462 0.4628 0.0000
# 130 texture coords

o Box761
g Box761
usemtl wire_061135006
s 1
f 1/1/1 2/2/2 3/3/3 4/4/4 
f 5/5/5 6/6/6 7/7/7 8/8/8 
f 9/9/9 10/10/10 11/11/11 12/12/12 
f 13/13/13 14/14/14 15/15/15 16/16/16 
f 17/17/17 14/14/14 18/18/18 19/19/19 
f 20/20/20 21/21/21 22/22/22 23/23/23 
f 24/24/24 25/25/25 26/26/26 27/27/27 
f 17/17/17 28/28/28 29/29/29 30/30/30 
f 28/28/28 17/17/17 19/19/19 31/31/31 
f 32/32/32 20/20/20 23/23/23 33/33/33 
f 34/34/34 24/24/24 27/27/27 35/35/35 
f 28/36/28 36/37/36 37/38/37 29/39/29 
f 36/37/36 28/36/28 31/40/31 38/41/38 
f 39/42/39 32/32/32 33/33/33 40/43/40 
f 41/44/41 34/45/34 35/46/35 42/47/42 
f 36/37/36 43/48/43 44/49/37 37/38/37 
f 43/48/43 36/37/36 38/41/38 45/50/44 
f 46/51/45 39/42/39 40/43/40 47/52/46 
f 48/53/47 41/44/41 42/47/42 49/54/48 
f 43/48/43 2/2/2 50/55/49 44/49/37 
f 2/2/2 43/48/43 45/50/44 3/3/3 
f 51/56/50 46/51/45 47/52/46 7/7/7 
f 10/10/10 48/53/47 49/54/48 11/11/11 
f 2/2/2 1/1/1 52/57/51 50/55/49 
f 14/14/14 17/17/17 30/30/30 15/15/15 
f 14/14/14 13/13/13 53/58/52 18/18/18 
f 21/21/21 54/59/53 55/60/54 22/22/22 
f 25/25/25 56/61/55 57/62/56 26/26/26 
f 56/61/55 53/58/52 58/63/57 59/64/58 
f 60/65/59 55/60/54 61/66/60 62/67/61 
f 54/59/53 57/62/56 63/68/62 64/69/63 
f 13/13/13 16/16/16 65/70/64 66/71/65 
f 59/64/58 58/63/57 67/72/66 68/73/67 
f 62/67/61 61/66/60 69/74/68 70/75/69 
f 64/69/63 63/68/62 71/76/70 72/77/71 
f 66/71/65 65/70/64 73/78/72 74/79/73 
f 68/73/67 67/72/66 75/80/74 76/81/75 
f 70/75/69 69/74/68 77/82/76 78/83/77 
f 72/77/71 71/76/70 79/84/78 80/85/79 
f 74/79/73 73/78/72 81/86/80 82/87/81 
f 76/81/75 75/80/74 83/88/82 84/89/83 
f 78/83/77 77/82/76 85/90/84 86/91/85 
f 80/85/79 79/84/78 87/92/86 88/93/87 
f 82/87/81 81/86/80 89/94/88 90/95/89 
f 3/3/3 10/10/10 9/9/9 4/4/4 
f 6/6/6 91/96/90 51/56/50 7/7/7 
f 18/18/18 25/25/25 24/24/24 19/19/19 
f 22/22/22 92/97/91 93/98/92 23/23/23 
f 19/19/19 24/24/24 34/34/34 31/31/31 
f 23/23/23 93/98/92 94/99/93 33/33/33 
f 31/40/31 34/45/34 41/44/41 38/41/38 
f 33/33/33 94/99/93 95/100/94 40/43/40 
f 38/41/38 41/44/41 48/53/47 45/50/44 
f 40/43/40 95/100/94 96/101/95 47/52/46 
f 45/50/44 48/53/47 10/10/10 3/3/3 
f 47/52/46 96/101/95 8/8/8 7/7/7 
f 53/58/52 56/61/55 25/25/25 18/18/18 
f 55/60/54 60/65/59 92/97/91 22/22/22 
f 53/58/52 13/13/13 66/71/65 58/63/57 
f 55/60/54 54/59/53 64/69/63 61/66/60 
f 58/63/57 66/71/65 74/79/73 67/72/66 
f 61/66/60 64/69/63 72/77/71 69/74/68 
f 67/72/66 74/79/73 82/87/81 75/80/74 
f 69/74/68 72/77/71 80/85/79 77/82/76 
f 75/80/74 82/87/81 90/95/89 83/88/82 
f 77/82/76 80/85/79 88/93/87 85/90/84 
f 11/102/11 51/56/50 91/96/90 12/103/12 
f 15/104/15 92/97/91 60/65/59 16/105/16 
f 26/26/26 21/21/21 20/20/20 27/27/27 
f 29/39/29 94/99/93 93/98/92 30/106/30 
f 27/27/27 20/20/20 32/32/32 35/35/35 
f 37/38/37 95/100/94 94/99/93 29/39/29 
f 35/35/35 32/32/32 39/42/39 42/107/42 
f 44/49/37 96/101/95 95/100/94 37/38/37 
f 42/107/42 39/42/39 46/51/45 49/108/48 
f 50/55/49 8/8/8 96/101/95 44/49/37 
f 49/108/48 46/51/45 51/56/50 11/102/11 
f 52/57/51 5/5/5 8/8/8 50/55/49 
f 30/106/30 93/98/92 92/97/91 15/104/15 
f 57/62/56 54/59/53 21/21/21 26/26/26 
f 57/62/56 56/61/55 59/64/58 63/68/62 
f 16/105/16 60/65/59 62/67/61 65/109/64 
f 63/68/62 59/64/58 68/73/67 71/76/70 
f 65/109/64 62/67/61 70/75/69 73/110/72 
f 71/76/70 68/73/67 76/81/75 79/84/78 
f 73/110/72 70/75/69 78/83/77 81/111/80 
f 79/84/78 76/81/75 84/89/83 87/92/86 
f 81/111/80 78/83/77 86/91/85 89/112/88 
f 4/4/4 9/9/9 97/113/96 98/114/97 
f 6/6/6 5/5/5 99/115/98 100/116/99 
f 9/9/9 12/12/12 101/117/100 97/113/96 
f 5/5/5 52/57/51 102/118/51 99/115/98 
f 91/96/90 6/6/6 100/116/99 103/119/101 
f 1/1/1 4/4/4 98/114/97 104/120/102 
f 12/103/12 91/96/90 103/119/101 101/121/100 
f 52/57/51 1/1/1 104/120/102 102/118/51 
f 98/114/97 97/113/96 105/122/103 106/123/104 
f 100/116/99 99/115/98 107/124/8 108/125/105 
f 97/113/96 101/117/100 109/126/106 105/122/103 
f 99/115/98 102/118/51 110/127/37 107/124/8 
f 103/119/101 100/116/99 108/125/105 111/128/107 
f 104/120/102 98/114/97 106/123/104 112/129/2 
f 101/121/100 103/119/101 111/128/107 109/130/106 
f 102/118/51 104/120/102 112/129/2 110/127/37 
# 104 polygons

