# 3ds Max Wavefront OBJ Exporter v0.97b - (c)2007 guruware
# File Created: 11.03.2018 20:42:33

mtllib Papel.mtl

#
# object Cylinder162
#

v  -1113.1782 77.7263 21.4106
v  -1113.1782 80.5213 14.6629
v  -1113.1782 77.7264 7.9153
v  -1113.1782 70.9787 5.1203
v  -1113.1782 64.8458 7.6606
v  -1113.1782 63.0624 14.6629
v  -1113.1782 64.8458 21.6652
v  -1113.1782 70.9787 24.2055
v  -1110.7407 70.9787 32.5151
v  -1110.7407 58.3553 27.2863
v  -1108.4484 57.2754 27.2863
v  -1108.4484 70.9787 32.5151
v  -1110.7407 55.1403 14.6629
v  -1108.4484 54.0604 14.6629
v  -1110.7407 58.3553 2.0395
v  -1108.4484 57.2754 2.0395
v  -1110.7407 70.9787 -3.1893
v  -1108.4484 70.9787 -3.1893
v  -1110.7407 83.6021 2.0395
v  -1108.4484 83.6021 2.0395
v  -1110.7407 88.8309 14.6629
v  -1108.4484 88.8309 14.6629
v  -1110.7407 83.6021 27.2863
v  -1108.4484 83.6021 27.2863
v  -1106.1560 57.2754 27.2863
v  -1106.1560 70.9787 32.5151
v  -1106.1560 70.9787 -3.1893
v  -1106.1560 57.2754 2.0395
v  -1106.1560 83.6021 2.0395
v  -1106.1560 88.8309 14.6629
v  -1106.1560 83.6021 27.2863
v  -1103.8636 57.2754 27.2863
v  -1103.8636 70.9787 32.5151
v  -1103.8636 70.9787 -3.1893
v  -1103.8636 57.2754 2.0395
v  -1103.8636 83.6021 2.0395
v  -1103.8636 88.8309 14.6629
v  -1103.8636 83.6021 27.2863
v  -1101.5714 57.2754 27.2863
v  -1101.5714 70.9787 32.5151
v  -1101.5714 70.9787 -3.1893
v  -1101.5714 57.2754 2.0395
v  -1101.5714 83.6021 2.0395
v  -1101.5714 88.8309 14.6629
v  -1101.5714 83.6021 27.2863
v  -1099.2791 58.3553 27.2863
v  -1099.2791 70.9787 32.5151
v  -1101.5714 54.0604 14.6629
v  -1099.2791 55.1403 14.6629
v  -1099.2791 58.3553 2.0395
v  -1099.2791 70.9787 -3.1893
v  -1099.2791 83.6021 2.0395
v  -1099.2791 88.8309 14.6629
v  -1099.2791 83.6021 27.2863
v  -1109.5945 52.1759 14.6629
v  -1109.5945 55.4230 27.4123
v  -1109.5945 55.4230 1.9135
v  -1106.1560 55.4230 1.9135
v  -1103.8636 55.4230 1.9135
v  -1100.4252 55.4230 1.9135
v  -1100.4252 52.1759 14.6629
v  -1100.4252 55.4230 27.4123
v  -1103.8636 55.4230 27.4123
v  -1106.1560 55.4230 27.4123
v  -1110.7407 70.9787 29.6981
v  -1110.7407 60.5556 25.3807
v  -1110.7407 81.6102 25.2944
v  -1110.7407 86.0139 14.6629
v  -1110.7407 81.6102 4.0314
v  -1110.7407 70.9787 -0.3723
v  -1110.7407 60.5556 3.9451
v  -1110.7407 57.8259 14.6629
# 72 vertices

vn -0.9995 0.0222 0.0222
vn -0.9995 0.0314 -0.0000
vn -0.9995 0.0222 -0.0222
vn -0.9995 -0.0000 -0.0314
vn -0.9995 -0.0238 -0.0206
vn -0.9995 -0.0305 -0.0000
vn -0.9995 -0.0238 0.0206
vn -0.9995 -0.0000 0.0314
vn -0.6302 0.0000 0.7764
vn -0.9619 -0.1428 0.2332
vn -0.7053 -0.1737 0.6873
vn -0.0000 0.0141 0.9999
vn -0.9907 -0.1362 -0.0000
vn -0.9982 -0.0595 -0.0000
vn -0.9619 -0.1428 -0.2332
vn -0.7053 -0.1737 -0.6873
vn -0.6302 0.0000 -0.7764
vn 0.0000 0.0141 -0.9999
vn -0.6302 0.5490 -0.5490
vn -0.0000 0.7071 -0.7071
vn -0.6303 0.7764 -0.0000
vn -0.0000 1.0000 -0.0000
vn -0.6302 0.5490 0.5490
vn -0.0000 0.7071 0.7071
vn 0.0000 -0.1478 0.9890
vn 0.0000 0.0141 0.9999
vn 0.0000 -0.1478 -0.9890
vn 0.0000 0.7071 -0.7071
vn 0.0000 1.0000 -0.0000
vn 0.0000 0.7071 0.7071
vn -0.0000 -0.1478 0.9890
vn -0.0000 0.0140 0.9999
vn 0.0000 0.0140 -0.9999
vn 0.7053 -0.1737 0.6873
vn 0.7053 -0.1737 -0.6873
vn 0.9619 -0.1428 0.2332
vn 0.6303 -0.0000 0.7763
vn 0.9982 -0.0595 0.0000
vn 0.9907 -0.1362 0.0000
vn 0.9619 -0.1428 -0.2332
vn 0.6303 -0.0000 -0.7763
vn 0.6303 0.5490 -0.5489
vn 0.6303 0.7764 -0.0000
vn 0.6303 0.5490 0.5489
vn -0.9976 0.0688 -0.0000
vn -0.7623 0.0970 0.6399
vn -0.7623 0.0970 -0.6399
vn 0.0000 0.0678 -0.9977
vn 0.7623 0.0970 -0.6399
vn 0.9976 0.0688 0.0000
vn 0.7623 0.0970 0.6399
vn -0.0000 0.0678 0.9977
vn 0.0000 0.0678 0.9977
vn -0.9998 -0.0000 0.0189
vn -0.9999 -0.0130 0.0112
vn -0.9998 0.0133 0.0133
vn -0.9998 0.0189 -0.0000
vn -0.9998 0.0133 -0.0133
vn -0.9998 -0.0000 -0.0189
vn -0.9999 -0.0130 -0.0112
vn -0.9998 -0.0222 -0.0000
# 61 vertex normals

vt 0.3238 0.7954 0.0000
vt 0.2254 0.8362 0.0000
vt 0.1269 0.7954 0.0000
vt 0.0861 0.6969 0.0000
vt 0.1232 0.6074 0.0000
vt 0.2254 0.5814 0.0000
vt 0.3275 0.6074 0.0000
vt 0.3646 0.6969 0.0000
vt 0.7670 0.4553 0.0000
vt 0.7486 0.2581 0.0000
vt 0.7548 0.2420 0.0000
vt 0.7714 0.4547 0.0000
vt 0.7833 0.1561 0.0000
vt 0.6290 0.0451 0.0000
vt 0.6350 0.0300 0.0000
vt 0.7894 0.1410 0.0000
vt 0.4405 0.0210 0.0000
vt 0.4463 0.0059 0.0000
vt 0.0223 0.9757 0.0000
vt 0.2199 0.9782 0.0000
vt 0.2191 0.9826 0.0000
vt 0.0059 0.9831 0.0000
vt 0.3979 0.8977 0.0000
vt 0.3992 0.9021 0.0000
vt 0.5483 0.7744 0.0000
vt 0.5510 0.7771 0.0000
vt 0.6789 0.6304 0.0000
vt 0.6833 0.6315 0.0000
vt 0.7595 0.2421 0.0000
vt 0.7751 0.4552 0.0000
vt 0.2196 0.9868 0.0000
vt 0.0059 0.9867 0.0000
vt 0.4007 0.9057 0.0000
vt 0.5535 0.7797 0.0000
vt 0.6867 0.6330 0.0000
vt 0.7639 0.2428 0.0000
vt 0.7784 0.4563 0.0000
vt 0.2207 0.9905 0.0000
vt 0.0067 0.9904 0.0000
vt 0.4023 0.9088 0.0000
vt 0.5559 0.7822 0.0000
vt 0.6897 0.6347 0.0000
vt 0.7682 0.2436 0.0000
vt 0.7815 0.4575 0.0000
vt 0.2219 0.9942 0.0000
vt 0.0077 0.9935 0.0000
vt 0.4040 0.9118 0.0000
vt 0.5583 0.7847 0.0000
vt 0.6925 0.6365 0.0000
vt 0.7756 0.2584 0.0000
vt 0.7845 0.4584 0.0000
vt 0.0773 0.0466 0.0000
vt 0.2614 0.0005 0.0000
vt 0.2614 0.0167 0.0000
vt 0.0773 0.0628 0.0000
vt 0.4456 0.0466 0.0000
vt 0.4455 0.0628 0.0000
vt 0.2229 0.9976 0.0000
vt 0.0228 0.9995 0.0000
vt 0.4059 0.9149 0.0000
vt 0.5609 0.7873 0.0000
vt 0.6955 0.6385 0.0000
vt 0.0769 0.4317 0.0000
vt 0.0005 0.2471 0.0000
vt 0.5224 0.2471 0.0000
vt 0.4460 0.4317 0.0000
vt 0.2614 0.5083 0.0000
vt 0.4566 0.5114 0.0000
vt 0.5129 0.3241 0.0000
vt 0.5386 0.3313 0.0000
vt 0.4809 0.5053 0.0000
vt 0.5626 0.1349 0.0000
vt 0.5801 0.1528 0.0000
vt 0.5743 0.1293 0.0000
vt 0.5768 0.1542 0.0000
vt 0.5867 0.1328 0.0000
vt 0.5716 0.1527 0.0000
vt 0.5938 0.1437 0.0000
vt 0.5695 0.1498 0.0000
vt 0.5374 0.3310 0.0000
vt 0.5117 0.3238 0.0000
vt 0.4878 0.5202 0.0000
vt 0.4702 0.5023 0.0000
vt 0.4760 0.5258 0.0000
vt 0.4736 0.5009 0.0000
vt 0.4637 0.5223 0.0000
vt 0.4787 0.5024 0.0000
vt 0.7259 0.4488 0.0000
vt 0.7120 0.2815 0.0000
vt 0.6451 0.6086 0.0000
vt 0.5211 0.7460 0.0000
vt 0.3774 0.8630 0.0000
vt 0.2128 0.9379 0.0000
vt 0.0434 0.9371 0.0000
vt 0.6147 0.0815 0.0000
vt 0.4545 0.0611 0.0000
vt 0.7457 0.1758 0.0000
vt 0.3818 0.5448 0.0000
vt 0.4449 0.6969 0.0000
vt 0.3806 0.8521 0.0000
vt 0.2254 0.9164 0.0000
vt 0.0701 0.8521 0.0000
vt 0.0059 0.6969 0.0000
vt 0.0689 0.5447 0.0000
vt 0.2254 0.5049 0.0000
# 105 texture coords

o Cylinder162
g Cylinder162
usemtl wire_214228153
s 1
f 1/1/1 2/2/2 3/3/3 4/4/4 5/5/5 6/6/6 7/7/7 8/8/8 
s 8
f 9/9/9 10/10/10 11/11/11 12/12/12 
f 10/13/10 13/14/13 14/15/14 11/16/11 
f 13/14/13 15/17/15 16/18/16 14/15/14 
f 15/19/15 17/20/17 18/21/18 16/22/16 
f 17/20/17 19/23/19 20/24/20 18/21/18 
f 19/23/19 21/25/21 22/26/22 20/24/20 
f 21/25/21 23/27/23 24/28/24 22/26/22 
f 23/27/23 9/9/9 12/12/12 24/28/24 
f 12/12/12 11/11/11 25/29/25 26/30/26 
f 16/22/16 18/21/18 27/31/18 28/32/27 
f 18/21/18 20/24/20 29/33/28 27/31/18 
f 20/24/20 22/26/22 30/34/29 29/33/28 
f 22/26/22 24/28/24 31/35/30 30/34/29 
f 24/28/24 12/12/12 26/30/26 31/35/30 
f 26/30/26 25/29/25 32/36/31 33/37/32 
f 28/32/27 27/31/18 34/38/33 35/39/27 
f 27/31/18 29/33/28 36/40/20 34/38/33 
f 29/33/28 30/34/29 37/41/22 36/40/20 
f 30/34/29 31/35/30 38/42/24 37/41/22 
f 31/35/30 26/30/26 33/37/32 38/42/24 
f 33/37/32 32/36/31 39/43/34 40/44/32 
f 35/39/27 34/38/33 41/45/33 42/46/35 
f 34/38/33 36/40/20 43/47/20 41/45/33 
f 36/40/20 37/41/22 44/48/22 43/47/20 
f 37/41/22 38/42/24 45/49/24 44/48/22 
f 38/42/24 33/37/32 40/44/32 45/49/24 
f 40/44/32 39/43/34 46/50/36 47/51/37 
f 39/52/34 48/53/38 49/54/39 46/55/36 
f 48/53/38 42/56/35 50/57/40 49/54/39 
f 42/46/35 41/45/33 51/58/41 50/59/40 
f 41/45/33 43/47/20 52/60/42 51/58/41 
f 43/47/20 44/48/22 53/61/43 52/60/42 
f 44/48/22 45/49/24 54/62/44 53/61/43 
f 45/49/24 40/44/32 47/51/37 54/62/44 
s 1
f 54/63/44 47/64/37 46/55/36 49/54/39 50/57/40 51/65/41 52/66/42 53/67/43 
s off
f 11/68/11 14/69/14 55/70/45 56/71/46 
f 14/69/14 16/72/16 57/73/47 55/70/45 
f 16/72/16 28/74/27 58/75/48 57/73/47 
f 28/74/27 35/76/27 59/77/48 58/75/48 
f 35/76/27 42/78/35 60/79/49 59/77/48 
f 42/78/35 48/80/38 61/81/50 60/79/49 
f 48/80/38 39/82/34 62/83/51 61/81/50 
f 39/82/34 32/84/31 63/85/52 62/83/51 
f 32/84/31 25/86/25 64/87/53 63/85/52 
f 25/86/25 11/68/11 56/71/46 64/87/53 
f 10/10/10 9/9/9 65/88/54 66/89/55 
f 9/9/9 23/27/23 67/90/56 65/88/54 
f 23/27/23 21/25/21 68/91/57 67/90/56 
f 21/25/21 19/23/19 69/92/58 68/91/57 
f 19/23/19 17/20/17 70/93/59 69/92/58 
f 17/20/17 15/19/15 71/94/60 70/93/59 
f 15/17/15 13/14/13 72/95/61 71/96/60 
f 13/14/13 10/13/10 66/97/55 72/95/61 
f 66/98/55 65/99/54 8/8/8 7/7/7 
f 65/99/54 67/100/56 1/1/1 8/8/8 
f 67/100/56 68/101/57 2/2/2 1/1/1 
f 68/101/57 69/102/58 3/3/3 2/2/2 
f 69/102/58 70/103/59 4/4/4 3/3/3 
f 70/103/59 71/104/60 5/5/5 4/4/4 
f 71/104/60 72/105/61 6/6/6 5/5/5 
f 72/105/61 66/98/55 7/7/7 6/6/6 
# 62 polygons

