# 3ds Max Wavefront OBJ Exporter v0.97b - (c)2007 guruware
# File Created: 05.03.2018 09:18:20

mtllib Piso.mtl

#
# object Plane002
#

v  -617.2145 -73.6237 -805.1755
v  -617.2145 -73.6239 851.9634
v  1017.6458 -73.6239 851.9634
v  1017.6458 -73.6237 -805.1755
v  -617.2145 330.9216 -805.1755
v  -617.2145 330.9215 851.9634
v  1017.6458 330.9216 -805.1755
v  1017.6458 330.9215 851.9634
# 8 vertices

vn 0.5774 0.5774 0.5774
vn 0.5774 0.5774 -0.5774
vn -0.5774 0.5774 -0.5774
vn -0.5774 0.5774 0.5774
vn 0.7071 0.0000 0.7071
vn 0.7071 0.0000 -0.7071
vn -0.7071 0.0000 0.7071
vn -0.7071 0.0000 -0.7071
# 8 vertex normals

vt 0.1837 0.8206 0.0000
vt 0.1837 0.1794 0.0000
vt 0.8163 0.1794 0.0000
vt 0.8163 0.8206 0.0000
vt 0.0272 0.8206 0.0000
vt 0.0272 0.1794 0.0000
vt 0.8163 0.9771 0.0000
vt 0.1837 0.9771 0.0000
vt 0.9728 0.1794 0.0000
vt 0.9728 0.8206 0.0000
vt 0.1837 0.0229 0.0000
vt 0.8163 0.0229 0.0000
# 12 texture coords

o Plane002
g Plane002
usemtl wire_214229166
s 1
f 1/1/1 2/2/2 3/3/3 4/4/4 
s off
f 2/2/2 1/1/1 5/5/5 6/6/6 
f 1/1/1 4/4/4 7/7/7 5/8/5 
f 4/4/4 3/3/3 8/9/8 7/10/7 
f 3/3/3 2/2/2 6/11/6 8/12/8 
# 5 polygons

